<?xml version="1.0" encoding="UTF-8" standalone="no"?>
<!-- Generator: Adobe Illustrator 17.0.0, SVG Export Plug-In . SVG Version: 6.00 Build 0)  -->

<svg
   version="1.1"
   id="Layer_1"
   x="0px"
   y="0px"
   width="512"
   height="512"
   viewBox="0 0 512 512"
   enable-background="new 0 0 2000 2000"
   xml:space="preserve"
   sodipodi:docname="icon.svg"
   inkscape:version="1.1.2 (0a00cf5339, 2022-02-04)"
   xmlns:inkscape="http://www.inkscape.org/namespaces/inkscape"
   xmlns:sodipodi="http://sodipodi.sourceforge.net/DTD/sodipodi-0.dtd"
   xmlns="http://www.w3.org/2000/svg"
   xmlns:svg="http://www.w3.org/2000/svg"><defs
   id="defs184" /><sodipodi:namedview
   id="namedview182"
   pagecolor="#ffffff"
   bordercolor="#999999"
   borderopacity="1"
   inkscape:pageshadow="0"
   inkscape:pageopacity="0"
   inkscape:pagecheckerboard="0"
   showgrid="false"
   inkscape:zoom="0.4035"
   inkscape:cx="524.16357"
   inkscape:cy="405.20446"
   inkscape:window-width="1846"
   inkscape:window-height="1016"
   inkscape:window-x="0"
   inkscape:window-y="0"
   inkscape:window-maximized="1"
   inkscape:current-layer="Layer_1" />
<g
   id="g179"
   transform="matrix(0.84555139,0,0,0.84555139,-587.99299,-587.7774)">
	<g
   id="g173">
		<g
   id="g171">
			<g
   id="g165">
				<g
   id="g163">
					<g
   id="g161">
						<path
   fill="#ea7e8e"
   d="m 962.789,912.903 c 0,-0.002 0,-0.002 0.003,-0.003 0.003,-0.003 0.005,-0.007 0.007,-0.012 z"
   id="path153" />
						<g
   id="g159">
							<path
   fill="#ea7e8e"
   d="m 1068.88,1054.526 -2.308,-6.779 -58.484,-168.572 c -15.41,5.675 -30.668,13.209 -45.763,22.638 -1.831,1.146 -3.65,2.494 -5.479,3.697 l 0.471,1.469 3.967,12.331 18.679,57.692 h -98.652 c -0.131,0.176 -0.265,0.34 -0.395,0.514 l -0.204,0.281 -0.099,0.067 c -1.708,2.169 -3.372,4.352 -4.953,6.489 -0.181,0.243 -0.327,0.482 -0.504,0.725 h 107.402 l 29.279,90.289 2.596,8.077 1.082,3.461 c 11.827,-5.337 23.942,-11.177 36.346,-17.594 5.338,-3.03 11.971,-6.636 18.606,-10.171 z"
   id="path155" />
							<path
   fill="#ea7e8e"
   d="m 854.784,1095.559 h -39.749 l 9.159,-26.321 9.169,-26.224 c 0.228,-2.424 0.539,-4.904 1.05,-7.519 1.008,-5.099 2.58,-10.618 4.844,-16.522 2.692,-7.052 6.035,-14.018 9.812,-20.889 l 4.546,-13.005 h 3.224 c 1.173,-1.779 2.338,-3.561 3.633,-5.392 v 0 c 0.002,-0.003 0.005,-0.007 0.007,-0.01 0.002,-0.003 0.005,-0.008 0.008,-0.012 0.62,-0.898 1.296,-1.77 1.931,-2.663 h -5.989 l 2.522,-7.283 c 0,0 0,0 0,-0.074 l 61.586,-176.322 29.569,91.443 2.278,6.928 c 0.726,-0.467 1.437,-0.983 2.166,-1.442 v 0 c 0.003,-0.003 0.01,-0.007 0.013,-0.008 0.012,-0.007 0.023,-0.015 0.034,-0.022 v 0 c 1.37,-0.915 2.744,-1.779 4.126,-2.536 l -10e-4,-0.002 c 14.753,-9.38 29.635,-16.701 44.633,-22.132 l -2.551,-7.397 -0.146,-0.432 -47.955,-138.246 h -14.784 l -98.364,279.807 -16.805,47.815 c 0,0 0,0.07 0,0.144 l -17.02,48.315 h -32.018 v 8.078 h 93.944 c -4.777,-2.23 -9.06,-4.942 -12.872,-8.077 z"
   id="path157" />
						</g>
					</g>
				</g>
			</g>
			<g
   id="g169">
				<path
   fill="#ffffff"
   d="m 1047.894,1176.277 c -31.421,13.415 -64.062,19.76 -96.178,19.762 -95.247,0 -185.843,-55.833 -225.606,-148.963 -13.417,-31.416 -19.761,-64.054 -19.763,-96.168 0.005,-95.247 55.833,-185.848 148.968,-225.609 31.416,-13.417 64.055,-19.763 96.173,-19.763 95.242,0.005 185.84,55.831 225.603,148.963 13.417,31.418 19.761,64.057 19.763,96.173 0,31.15 -5.986,61.807 -17.288,90.355 h 9.216 c 10.902,-28.646 16.726,-59.245 16.726,-90.355 0,-33.257 -6.576,-67.069 -20.458,-99.572 -41.177,-96.411 -134.962,-154.226 -233.562,-154.219 -33.257,0 -67.07,6.579 -99.574,20.458 -96.413,41.173 -154.225,134.963 -154.221,233.569 -0.002,33.255 6.578,67.065 20.457,99.565 41.177,96.411 134.96,154.224 233.565,154.219 33.257,0 67.071,-6.578 99.577,-20.458 z"
   id="path167" />
			</g>
		</g>
	</g>
	<g
   id="g177">
		<path
   fill="#ea7e8e"
   d="m 1303.164,1069.742 c -0.36,1.588 -1.297,3.102 -3.243,4.544 -1.948,1.442 -4.976,2.812 -9.014,3.893 -6.059,1.588 -15.29,5.77 -26.613,11.757 0,0.07 0,0.07 0,0.07 -4.687,2.452 -9.807,5.266 -15.142,8.367 -67.861,38.944 -182.669,119.712 -196.01,128.87 -16.949,11.611 -31.875,25.097 -44.855,40.528 v 0.074 c -9.666,12.619 -20.988,23.365 -34.113,32.163 -4.615,3.102 -8.941,4.038 -13.197,3.245 -1.658,-0.36 -3.1,-1.154 -4.397,-2.668 l -0.146,-0.216 c -0.866,-2.162 -1.08,-4.255 -0.65,-6.347 0.362,-2.09 1.084,-3.749 2.022,-5.265 l 0.07,-0.07 c 1.66,-2.67 3.391,-5.266 5.265,-7.719 2.668,-3.678 5.626,-7.067 8.871,-10.311 4.615,-4.76 9.808,-9.087 15.433,-13.053 h 0.07 c 12.261,-9.591 23.294,-21.058 32.957,-34.4 9.809,-13.341 18.246,-28.557 25.457,-45.647 l 5.193,-10.963 c 18.966,-39.664 51.201,-119.568 51.201,-119.568 l 2.596,-6.489 -6.129,3.317 c 0,0 -14.063,7.499 -28.341,15.288 -6.636,3.534 -13.269,7.141 -18.608,10.171 -12.402,6.417 -24.519,12.258 -36.344,17.594 -7.285,3.318 -14.497,6.419 -21.564,9.305 -1.514,0.648 -3.1,1.224 -4.615,1.802 -17.02,6.779 -33.317,12.331 -49.183,16.658 -10.241,2.956 -20.266,4.615 -30.361,5.12 -10.889,0.65 -21.778,-0.146 -32.597,-2.236 -12.619,-2.524 -23.003,-7.285 -31.225,-13.918 -3.1,-2.38 -5.841,-5.12 -8.293,-8.078 -3.749,-4.397 -6.851,-9.375 -9.375,-14.782 -1.658,-3.678 -3.1,-7.501 -4.11,-11.539 -1.658,-6.563 -2.236,-13.775 -1.442,-21.994 0,-0.074 0,-0.144 0,-0.144 0.29,-2.452 0.65,-4.978 1.154,-7.573 1.08,-5.481 2.74,-11.395 5.193,-17.74 2.884,-7.573 6.419,-15.072 10.457,-22.502 2.307,-4.254 4.903,-8.509 7.571,-12.763 1.588,-2.38 3.172,-4.76 4.903,-7.211 2.238,-3.246 4.544,-6.419 6.924,-9.591 0,0 0,0 0,-0.074 7.211,-9.375 15.073,-18.39 23.293,-27.043 7.935,-8.367 16.083,-16.37 24.447,-23.869 13.993,-12.693 28.487,-24.16 43.414,-33.967 1.37,-0.938 2.814,-1.874 4.255,-2.742 1.516,-1.008 3.03,-1.945 4.472,-2.74 13.846,-8.797 27.765,-16.008 41.828,-21.561 8.003,-3.246 16.08,-5.914 24.157,-8.079 l 0.073,0.074 c 14.64,-4.256 27.187,-5.77 38.22,-6.347 10.818,-0.576 22.861,0.36 36.202,3.028 8.943,1.804 17.526,4.976 25.745,9.807 8.005,4.616 13.56,10.891 17.094,19.184 3.534,8.293 4.47,16.008 3.1,23.078 -2.308,11.609 -10.313,25.021 -24.304,40.022 -7.931,8.511 -18.532,16.442 -32.018,23.582 -6.779,3.605 -12.475,6.201 -17.237,7.645 -4.687,1.442 -8.365,1.801 -10.817,1.226 -1.514,-0.288 -2.956,-1.226 -4.399,-3.318 -1.516,-2.308 -1.802,-3.822 -1.586,-4.831 0.578,-2.596 1.586,-4.184 3.318,-5.337 1.801,-1.226 5.553,-2.67 10.815,-3.896 l 0.074,-0.072 h 0.07 c 17.38,-5.193 32.382,-14.568 44.929,-27.979 9.375,-10.457 15.288,-20.986 17.38,-31.517 1.226,-6.201 0.578,-12.33 -2.092,-17.812 -2.596,-5.553 -6.633,-9.807 -11.827,-12.259 -4.975,-2.451 -10.238,-4.254 -15.792,-5.335 l -0.072,-0.074 c -16.371,-2.812 -30.217,-3.966 -41.828,-3.388 h -0.07 c -9.521,0.144 -20.41,2.092 -32.885,5.697 -7.501,2.162 -15.072,4.759 -22.5,7.789 -14.783,5.914 -29.421,13.341 -43.918,22.428 -2.308,1.441 -4.615,2.884 -6.851,4.471 -10.313,6.779 -20.48,14.351 -30.649,22.716 v 0.072 c -5.048,4.255 -9.951,8.725 -14.784,13.269 -13.485,12.908 -25.963,27.187 -37.355,42.836 0,0 -0.072,0 -0.072,0.072 -0.65,0.864 -1.298,1.658 -1.946,2.524 -1.3,1.658 -2.526,3.245 -3.678,4.832 -0.794,1.082 -1.586,2.164 -2.308,3.245 -0.936,1.298 -1.874,2.668 -2.74,4.038 -12.763,18.968 -20.264,36.924 -23.654,54.086 -3.028,15.145 -0.36,28.847 8.077,40.386 3.39,4.616 7.211,8.653 11.611,11.969 4.037,3.174 8.581,5.698 13.701,7.501 2.814,1.154 5.841,1.948 9.087,2.596 h 0.072 c 0.648,0.144 1.226,0.218 1.874,0.362 0.796,0.144 1.514,0.216 2.308,0.286 13.269,1.732 26.683,1.01 40.312,-2.234 1.732,-0.432 3.319,-0.792 5.048,-1.154 20.192,-4.831 39.88,-10.745 58.99,-17.812 8.223,-3.028 16.298,-6.275 24.304,-9.735 18.75,-8.005 36.996,-17.164 54.734,-27.621 11.683,-6.707 23.222,-13.99 34.473,-21.85 l 0.07,-0.074 c 7.285,-5.553 13.053,-7.427 16.804,-6.633 1.802,0.432 3.677,1.296 5.698,2.956 0.719,0.576 1.081,1.224 1.441,2.162 0.146,0.938 0.216,2.166 -0.07,3.822 l -1.37,4.184 c -23.872,59.998 -50.481,118.773 -79.832,176.465 l -3.462,6.779 6.851,-3.389 c 33.607,-21.13 147.837,-97.426 208.919,-131.322 5.119,-2.814 9.807,-5.337 13.99,-7.501 8.941,-4.543 15.866,-7.573 20.264,-8.581 2.524,-0.578 5.914,-1.01 8.079,-0.578 1.296,0.216 2.234,0.648 2.883,1.082 0.578,0.432 0.866,0.792 1.154,1.226 0.716,1.734 0.862,2.888 0.716,3.248 z"
   id="path175" />
	</g>
</g>
</svg>
